<?xml version="1.0" encoding="UTF-8" standalone="no"?>
<svg width="50px" height="50px" viewBox="0 0 50 50" version="1.1" xmlns="http://www.w3.org/2000/svg"
     xmlns:xlink="http://www.w3.org/1999/xlink">
    <!-- Generator: Sketch 44.1 (41455) - http://www.bohemiancoding.com/sketch -->
    <title>logo</title>
    <desc>Created with Sketch.</desc>
    <defs></defs>
    <g id="Page-1" stroke="none" stroke-width="1" fill="none" fill-rule="evenodd">
        <g id="logo">
            <g>
                <rect id="Artboard1" x="0" y="0" width="16.956" height="16.956"></rect>
                <g id="Group" transform="scale(2)" fill-rule="nonzero" fill="#f5f5f5">
                    <path d="M24.618,12.144c0-2.398-1.944-4.341-4.341-4.341c-0.389,0-0.765,0.056-1.123,0.152c0.041-0.241,0.067-0.486,0.067-0.739
	c0-2.398-1.944-4.341-4.341-4.341c-2.371,0-4.295,1.901-4.337,4.262c-0.723-0.538-1.615-0.86-2.585-0.86
	c-2.398,0-4.341,1.944-4.341,4.341c0,1.946,1.281,3.593,3.046,4.144c-1.261,0.76-2.107,2.138-2.107,3.717
	c0,2.398,1.944,4.341,4.341,4.341c1.51,0,2.839-0.772,3.617-1.942c0.566,1.74,2.199,2.998,4.127,2.998
	c2.398,0,4.341-1.944,4.341-4.341c0-1.213-0.499-2.309-1.301-3.097c0.196,0.027,0.394,0.046,0.597,0.046
	C22.675,16.485,24.618,14.541,24.618,12.144z M13.97,16.956c-1.863,0-3.373-1.51-3.373-3.373s1.51-3.373,3.373-3.373
	s3.373,1.51,3.373,3.373S15.832,16.956,13.97,16.956z"/>
                </g>
            </g>
        </g>
    </g>
</svg>